g BRACKET
v 0.0369822979 -0.035355337 0.00381027907
v 0.000404332095 -0.0212132018 0.00381027907
v 0.000404332095 -0.035355337 0.00381027907
v 0.0228401627 -0.0212132018 0.00381027907
v 0.0228401627 0.0212132018 0.00381027907
v 0.0369822979 0.035355337 0.00381027907
v 0.000404332095 0.035355337 0.00381027907
v 0.000404332095 0.0212132018 0.00381027907
v 0.000404332095 -0.035355337 0.00381027907
v 0.000404332095 -0.035355337 -0.0033897208
v 0.0369822979 -0.035355337 -0.0033897208
v 0.0369822979 -0.035355337 0.00381027907
v 0.0228401627 -0.0212132018 -0.0033897208
v 0.000404332095 -0.035355337 -0.0033897208
v 0.000404332095 -0.0212132018 -0.0033897208
v 0.0369822979 -0.035355337 -0.0033897208
v 0.0369822979 0.035355337 -0.0033897208
v 0.0228401627 0.0212132018 -0.0033897208
v 0.000404332095 0.0212132018 -0.0033897208
v 0.000404332095 0.035355337 -0.0033897208
v 0.000404332095 -0.0212132018 -0.0033897208
v 0.000404332095 -0.0212132018 0.00381027907
v 0.0228401627 -0.0212132018 0.00381027907
v 0.0228401627 -0.0212132018 -0.0033897208
v 0.0369822979 0.035355337 0.00381027907
v 0.0369822979 -0.035355337 0.00381027907
v 0.0369822979 -0.035355337 -0.0033897208
v 0.0369822979 0.035355337 -0.0033897208
v 0.0228401627 0.0212132018 -0.0033897208
v 0.0228401627 -0.0212132018 -0.0033897208
v 0.0228401627 -0.0212132018 0.00381027907
v 0.0228401627 0.0212132018 0.00381027907
v 0.000404332095 0.035355337 -0.0033897208
v 0.000404332095 0.035355337 0.00381027907
v 0.0369822979 0.035355337 0.00381027907
v 0.0369822979 0.035355337 -0.0033897208
v 0.000404332095 0.0212132018 0.00381027907
v 0.000404332095 0.0212132018 -0.0033897208
v 0.0228401627 0.0212132018 -0.0033897208
v 0.0228401627 0.0212132018 0.00381027907
v 0.000404332095 0.035355337 0.00381027907
v 0.000404332095 0.035355337 -0.0033897208
v 0.000404332095 0.0212132018 -0.0033897208
v 0.000404332095 0.0212132018 0.00381027907
v 0.000404332095 -0.035355337 0.00381027907
v 0.000404332095 -0.0212132018 0.00381027907
v 0.000404332095 -0.0212132018 -0.0033897208
v 0.000404332095 -0.035355337 -0.0033897208
vt 0.582233131 0.0961971283
vt 1 0.257718325
vt 1 0.0961971283
vt 0.743754327 0.257718325
vt 0.743754327 0.742281735
vt 0.582233131 0.903802872
vt 1 0.903802872
vt 1 0.742281735
vt 0.0822331458 0.903802872
vt 0.0822331458 0.986036062
vt 0.5 0.986036062
vt 0.5 0.903802872
vt 0.338478833 0.257718325
vt 0.0822331458 0.0961971283
vt 0.0822331458 0.257718325
vt 0.5 0.0961971283
vt 0.5 0.903802872
vt 0.338478833 0.742281735
vt 0.0822331458 0.742281735
vt 0.0822331458 0.903802872
vt 0.0822331458 0.0139639378
vt 0.0822331458 0.0961971283
vt 0.338478833 0.0961971283
vt 0.338478833 0.0139639378
vt 0.0822331458 0.903802872
vt 0.0822331458 0.0961971283
vt 0 0.0961971283
vt 0 0.903802872
vt 0.582233131 0.742281735
vt 0.582233131 0.257718325
vt 0.5 0.257718325
vt 0.5 0.742281735
vt 0.0822331458 0.0139639378
vt 0.0822331458 0.0961971283
vt 0.5 0.0961971283
vt 0.5 0.0139639378
vt 0.0822331458 0.903802872
vt 0.0822331458 0.986036062
vt 0.338478833 0.986036062
vt 0.338478833 0.903802872
vt 0.5 0.903802872
vt 0.582233131 0.903802872
vt 0.582233131 0.742281735
vt 0.5 0.742281735
vt 0.5 0.0961971283
vt 0.5 0.257718325
vt 0.582233131 0.257718325
vt 0.582233131 0.0961971283
vn -0 0 -1
vn -0 0 -1
vn -0 0 -1
vn -0 0 -1
vn -0 0 -1
vn -0 0 -1
vn -0 0 -1
vn -0 0 -1
vn -0 1 0
vn -0 1 0
vn -0 1 0
vn -0 1 0
vn -0 0 1
vn -0 0 1
vn -0 0 1
vn -0 0 1
vn -0 0 1
vn -0 0 1
vn -0 0 1
vn -0 0 1
vn -0 -1 0
vn -0 -1 0
vn -0 -1 0
vn -0 -1 0
vn -1 0 0
vn -1 0 0
vn -1 0 0
vn -1 0 0
vn 1 0 0
vn 1 0 0
vn 1 0 0
vn 1 0 0
vn -0 -1 0
vn -0 -1 0
vn -0 -1 0
vn -0 -1 0
vn -0 1 0
vn -0 1 0
vn -0 1 0
vn -0 1 0
vn 1 0 0
vn 1 0 0
vn 1 0 0
vn 1 0 0
vn 1 0 0
vn 1 0 0
vn 1 0 0
vn 1 0 0
g BRACKET_0
f 3/3/3 2/2/2 1/1/1
f 2/2/2 4/4/4 1/1/1
f 1/1/1 4/4/4 5/5/5
f 6/6/6 1/1/1 5/5/5
f 7/7/7 6/6/6 5/5/5
f 8/8/8 7/7/7 5/5/5
f 11/11/11 10/10/10 9/9/9
f 12/12/12 11/11/11 9/9/9
f 15/15/15 14/14/14 13/13/13
f 14/14/14 16/16/16 13/13/13
f 13/13/13 16/16/16 17/17/17
f 18/18/18 13/13/13 17/17/17
f 19/19/19 18/18/18 17/17/17
f 20/20/20 19/19/19 17/17/17
f 23/23/23 22/22/22 21/21/21
f 24/24/24 23/23/23 21/21/21
f 27/27/27 26/26/26 25/25/25
f 28/28/28 27/27/27 25/25/25
f 31/31/31 30/30/30 29/29/29
f 32/32/32 31/31/31 29/29/29
f 35/35/35 34/34/34 33/33/33
f 36/36/36 35/35/35 33/33/33
f 39/39/39 38/38/38 37/37/37
f 40/40/40 39/39/39 37/37/37
f 43/43/43 42/42/42 41/41/41
f 44/44/44 43/43/43 41/41/41
f 47/47/47 46/46/46 45/45/45
f 48/48/48 47/47/47 45/45/45
